<?xml version="1.0" encoding="UTF-8"?>
<!DOCTYPE svg PUBLIC "-//W3C//DTD SVG 1.1//EN" "http://www.w3.org/Graphics/SVG/1.1/DTD/svg11.dtd">
<!-- Creator: CorelDRAW 2020 (64-Bit) -->
<svg xmlns="http://www.w3.org/2000/svg" xml:space="preserve" width="210mm" height="297mm" version="1.1" style="shape-rendering:geometricPrecision; text-rendering:geometricPrecision; image-rendering:optimizeQuality; fill-rule:evenodd; clip-rule:evenodd"
viewBox="0 0 21000 29700"
 xmlns:xlink="http://www.w3.org/1999/xlink"
 xmlns:xodm="http://www.corel.com/coreldraw/odm/2003">
 <defs>
  <style type="text/css">
   <![CDATA[
    .fil0 {fill:black}
    .fil1 {fill:url(#id0)}
   ]]>
  </style>
  <linearGradient id="id0" gradientUnits="userSpaceOnUse" x1="34497.04" y1="13032.26" x2="35036.74" y2="13663.34">
   <stop offset="0" style="stop-opacity:1; stop-color:#1EDF9E"/>
   <stop offset="0.388235" style="stop-opacity:1; stop-color:#2FD7BF"/>
   <stop offset="1" style="stop-opacity:1; stop-color:#40CFE0"/>
  </linearGradient>
 </defs>
 <g id="Capa_x0020_1">
  <metadata id="CorelCorpID_0Corel-Layer"/>
  <g id="_2099739143872">
   <polygon class="fil0" points="33981.64,12515.05 35547.97,12515.05 35547.97,14194.3 33981.64,14194.3 "/>
   <path class="fil1" d="M35075.42 12958.09c-13.47,0 -23.54,0 -26.17,9.81l-87.51 303.42c-3.49,14.89 -1.38,26.17 10.63,26.17l323.86 0c10.8,0 18.3,-7.21 22.08,-17.99l85.88 -296.06c3.6,-13.09 1.39,-25.35 -13.09,-25.35l-315.68 0zm-608.06 -261.37c-23.84,0 -41.66,0 -46.32,17.37l-154.9 537.07c-6.18,26.36 -2.44,46.33 18.82,46.33l573.26 0c19.12,0 32.39,-12.76 39.09,-31.85l152 -524.04c6.37,-23.18 2.46,-44.88 -23.17,-44.88l-558.78 0zm-224.09 701.38c-13.46,0 -23.54,0 -26.17,9.81l-87.51 303.42c-3.49,14.89 -1.38,26.17 10.64,26.17l323.86 0c10.8,0 18.3,-7.21 22.08,-17.99l85.87 -296.06c3.6,-13.09 1.39,-25.35 -13.08,-25.35l-315.69 0zm446.3 0c-23.84,0 -41.66,0 -46.32,17.37l-154.9 537.07c-6.18,26.36 -2.44,46.32 18.82,46.32l573.26 0c19.12,0 32.39,-12.75 39.09,-31.84l152 -524.04c6.37,-23.18 2.46,-44.88 -23.16,-44.88l-558.79 0z"/>
  </g>
 </g>
</svg>
